<svg width="23" height="30" viewBox="0 0 23 30" fill="none" xmlns="http://www.w3.org/2000/svg">
<path d="M0.260742 0.130493L2.39948 29.7888V29.8696H20.812L22.9507 0.222815V0.130493H0.260742ZM20.0554 29.0387H3.16169L1.55764 6.82382H2.4393L3.88977 26.4018C3.89826 26.5049 3.94436 26.601 4.01906 26.6715C4.09375 26.7419 4.19166 26.7815 4.29363 26.7826H4.32776C4.38084 26.779 4.43268 26.7647 4.48032 26.7407C4.52795 26.7166 4.57043 26.6833 4.60531 26.6425C4.6402 26.6018 4.6668 26.5544 4.68359 26.5032C4.70039 26.452 4.70704 26.3979 4.70317 26.3441L3.2527 6.82382H21.6595L20.0554 29.0387ZM21.7164 5.99292H3.19013L2.8716 1.66534C2.86159 1.55977 2.81268 1.46191 2.73465 1.39131C2.65662 1.32071 2.55521 1.28257 2.45067 1.28451C2.34354 1.29479 2.24452 1.34686 2.17449 1.42974C2.10446 1.51262 2.06888 1.61984 2.07526 1.72881L2.39379 5.99869H1.50076L1.13671 0.955618H22.0804L21.7164 5.99292Z" fill="#407BFF"/>
<path d="M6.77941 10.9321C7.04491 10.9321 7.30445 10.8522 7.52521 10.7026C7.74596 10.553 7.91802 10.3403 8.01963 10.0915C8.12123 9.84265 8.14781 9.56885 8.09602 9.3047C8.04422 9.04055 7.91637 8.79791 7.72863 8.60746C7.54089 8.41702 7.3017 8.28733 7.0413 8.23478C6.7809 8.18224 6.51099 8.20921 6.2657 8.31228C6.02041 8.41534 5.81075 8.58988 5.66325 8.81382C5.51574 9.03776 5.43701 9.30104 5.43701 9.57036C5.43701 9.93152 5.57844 10.2779 5.83019 10.5333C6.08194 10.7886 6.42338 10.9321 6.77941 10.9321ZM6.77941 9.03374C6.88404 9.03374 6.98631 9.06522 7.07331 9.12418C7.1603 9.18314 7.2281 9.26695 7.26814 9.36501C7.30818 9.46306 7.31865 9.57096 7.29824 9.67505C7.27783 9.77915 7.22745 9.87476 7.15347 9.94981C7.07949 10.0249 6.98523 10.076 6.88261 10.0967C6.78 10.1174 6.67363 10.1068 6.57697 10.0661C6.48031 10.0255 6.39769 9.95674 6.33957 9.86849C6.28144 9.78025 6.25041 9.6765 6.25041 9.57036C6.25041 9.42804 6.30615 9.29155 6.40535 9.19092C6.50456 9.09028 6.63911 9.03374 6.77941 9.03374Z" fill="#407BFF"/>
<path d="M6.77355 15.3578C6.77692 15.6266 6.85865 15.8884 7.00844 16.1102C7.15823 16.332 7.36937 16.5038 7.61527 16.604C7.86117 16.7043 8.13082 16.7284 8.39023 16.6735C8.64965 16.6185 8.88723 16.4869 9.07303 16.2952C9.25884 16.1036 9.38455 15.8604 9.43434 15.5963C9.48412 15.3323 9.45575 15.0592 9.35279 14.8115C9.24984 14.5638 9.07691 14.3525 8.85579 14.2043C8.63467 14.0561 8.37527 13.9777 8.11026 13.9788C7.93301 13.9795 7.75765 14.0159 7.59432 14.0857C7.43099 14.1556 7.28292 14.2576 7.15864 14.3858C7.03437 14.514 6.93635 14.6659 6.87026 14.8327C6.80416 14.9996 6.77129 15.178 6.77355 15.3578ZM8.63925 15.3578C8.63925 15.464 8.60823 15.5677 8.5501 15.656C8.49198 15.7442 8.40936 15.813 8.3127 15.8536C8.21603 15.8942 8.10967 15.9048 8.00706 15.8841C7.90444 15.8634 7.81018 15.8123 7.7362 15.7373C7.66222 15.6622 7.61184 15.5666 7.59143 15.4625C7.57101 15.3584 7.58149 15.2505 7.62153 15.1525C7.66157 15.0544 7.72937 14.9706 7.81636 14.9116C7.90336 14.8527 8.00563 14.8212 8.11026 14.8212C8.25056 14.8212 8.38511 14.8777 8.48431 14.9784C8.58352 15.079 8.63925 15.2155 8.63925 15.3578Z" fill="#407BFF"/>
<path d="M16.3126 15.3924C16.5781 15.3924 16.8377 15.3126 17.0584 15.1629C17.2792 15.0133 17.4512 14.8006 17.5528 14.5518C17.6544 14.303 17.681 14.0292 17.6292 13.765C17.5774 13.5009 17.4496 13.2582 17.2618 13.0678C17.0741 12.8773 16.8349 12.7477 16.5745 12.6951C16.3141 12.6426 16.0442 12.6695 15.7989 12.7726C15.5536 12.8757 15.344 13.0502 15.1964 13.2741C15.0489 13.4981 14.9702 13.7614 14.9702 14.0307C14.9702 14.3918 15.1116 14.7382 15.3634 14.9936C15.6151 15.249 15.9566 15.3924 16.3126 15.3924ZM16.3126 13.4998C16.4175 13.4998 16.52 13.5315 16.6071 13.5907C16.6942 13.6499 16.762 13.7341 16.8019 13.8325C16.8417 13.9309 16.8519 14.039 16.831 14.1433C16.8101 14.2475 16.7592 14.3431 16.6846 14.418C16.6101 14.4928 16.5153 14.5434 16.4123 14.5635C16.3093 14.5835 16.2028 14.5721 16.1062 14.5306C16.0096 14.4891 15.9274 14.4194 15.87 14.3304C15.8126 14.2414 15.7825 14.1371 15.7836 14.0307C15.7851 13.8894 15.8415 13.7544 15.9406 13.655C16.0396 13.5556 16.1733 13.4998 16.3126 13.4998Z" fill="#407BFF"/>
<path d="M11.6368 12.8247C11.9023 12.8247 12.1619 12.7448 12.3826 12.5952C12.6034 12.4456 12.7754 12.2329 12.877 11.9841C12.9787 11.7352 13.0052 11.4614 12.9534 11.1973C12.9016 10.9331 12.7738 10.6905 12.5861 10.5C12.3983 10.3096 12.1591 10.1799 11.8987 10.1274C11.6383 10.0748 11.3684 10.1018 11.1231 10.2049C10.8778 10.3079 10.6682 10.4825 10.5207 10.7064C10.3732 10.9303 10.2944 11.1936 10.2944 11.4629C10.2944 11.8241 10.4359 12.1705 10.6876 12.4258C10.9394 12.6812 11.2808 12.8247 11.6368 12.8247ZM11.6368 10.9263C11.7415 10.9263 11.8437 10.9578 11.9307 11.0168C12.0177 11.0757 12.0855 11.1595 12.1256 11.2576C12.1656 11.3556 12.1761 11.4635 12.1557 11.5676C12.1353 11.6717 12.0849 11.7673 12.0109 11.8424C11.9369 11.9174 11.8427 11.9685 11.74 11.9893C11.6374 12.01 11.5311 11.9993 11.4344 11.9587C11.3377 11.9181 11.2551 11.8493 11.197 11.7611C11.1389 11.6728 11.1078 11.5691 11.1078 11.4629C11.104 11.3901 11.1148 11.3172 11.1396 11.2487C11.1645 11.1802 11.2028 11.1176 11.2524 11.0647C11.3019 11.0118 11.3615 10.9696 11.4276 10.9409C11.4937 10.9121 11.5649 10.8974 11.6368 10.8975V10.9263Z" fill="#407BFF"/>
<path d="M9.07715 20.5451C9.08274 20.7664 9.15252 20.981 9.27775 21.1622C9.40298 21.3434 9.5781 21.4831 9.7812 21.5639C9.98431 21.6446 10.2064 21.6628 10.4196 21.6162C10.6329 21.5696 10.8279 21.4602 10.9801 21.3018C11.1324 21.1433 11.2353 20.9428 11.2758 20.7254C11.3164 20.508 11.2928 20.2832 11.2081 20.0793C11.1234 19.8754 10.9812 19.7013 10.7995 19.5789C10.6178 19.4565 10.4045 19.3912 10.1863 19.3911C9.88957 19.3986 9.60747 19.5235 9.40023 19.7392C9.193 19.9548 9.07706 20.244 9.07715 20.5451ZM10.1863 20.2451C10.2448 20.2451 10.302 20.2627 10.3507 20.2957C10.3993 20.3286 10.4372 20.3755 10.4596 20.4303C10.482 20.4851 10.4878 20.5455 10.4764 20.6037C10.465 20.6619 10.4369 20.7153 10.3955 20.7573C10.3541 20.7993 10.3014 20.8278 10.244 20.8394C10.1867 20.851 10.1272 20.845 10.0731 20.8223C10.0191 20.7996 9.9729 20.7612 9.9404 20.7118C9.9079 20.6625 9.89055 20.6045 9.89055 20.5451C9.89055 20.4656 9.92171 20.3892 9.97718 20.333C10.0327 20.2767 10.1079 20.2451 10.1863 20.2451Z" fill="#407BFF"/>
<path d="M14.4414 19.2931C14.6691 19.3011 14.894 19.2396 15.0868 19.1164C15.2797 18.9933 15.4317 18.8143 15.523 18.6025C15.6144 18.3908 15.641 18.1561 15.5994 17.9288C15.5577 17.7016 15.4497 17.4922 15.2894 17.3279C15.1292 17.1637 14.9239 17.052 14.7003 17.0074C14.4767 16.9628 14.2451 16.9874 14.0354 17.0779C13.8258 17.1684 13.6477 17.3207 13.5244 17.515C13.401 17.7094 13.338 17.9368 13.3436 18.1679C13.3507 18.4621 13.4683 18.7424 13.6723 18.9515C13.8764 19.1607 14.1515 19.2829 14.4414 19.2931ZM14.4414 17.8678C14.5199 17.8678 14.5951 17.8995 14.6506 17.9557C14.706 18.012 14.7372 18.0883 14.7372 18.1679C14.7372 18.2475 14.706 18.3238 14.6506 18.3801C14.5951 18.4363 14.5199 18.4679 14.4414 18.4679C14.3624 18.468 14.2866 18.4365 14.2302 18.3804C14.1738 18.3243 14.1414 18.248 14.1399 18.1679C14.1399 18.128 14.1478 18.0885 14.163 18.0517C14.1782 18.0149 14.2005 17.9816 14.2286 17.9537C14.2566 17.9257 14.2899 17.9037 14.3265 17.889C14.363 17.8743 14.4021 17.8671 14.4414 17.8678Z" fill="#407BFF"/>
<path d="M16.7846 9.98004C17.0096 9.98004 17.2295 9.91236 17.4166 9.78555C17.6037 9.65875 17.7495 9.47851 17.8356 9.26764C17.9217 9.05677 17.9443 8.82474 17.9004 8.60088C17.8565 8.37702 17.7481 8.1714 17.589 8.01C17.4299 7.84861 17.2272 7.7387 17.0065 7.69417C16.7859 7.64964 16.5571 7.6725 16.3492 7.75984C16.1414 7.84719 15.9637 7.9951 15.8387 8.18488C15.7137 8.37466 15.647 8.59777 15.647 8.82602C15.647 9.13208 15.7668 9.42561 15.9802 9.64203C16.1935 9.85846 16.4829 9.98004 16.7846 9.98004ZM16.7846 8.55482C16.8286 8.54207 16.875 8.53985 16.92 8.54835C16.965 8.55685 17.0074 8.57583 17.044 8.60379C17.0805 8.63176 17.1102 8.66795 17.1306 8.70952C17.151 8.75108 17.1616 8.79689 17.1616 8.84333C17.1616 8.88977 17.151 8.93558 17.1306 8.97714C17.1102 9.01871 17.0805 9.0549 17.044 9.08287C17.0074 9.11083 16.965 9.12981 16.92 9.13831C16.875 9.14681 16.8286 9.14459 16.7846 9.13183C16.7406 9.14459 16.6942 9.14681 16.6492 9.13831C16.6042 9.12981 16.5618 9.11083 16.5252 9.08287C16.4887 9.0549 16.459 9.01871 16.4386 8.97714C16.4182 8.93558 16.4076 8.88977 16.4076 8.84333C16.4076 8.79689 16.4182 8.75108 16.4386 8.70952C16.459 8.66795 16.4887 8.63176 16.5252 8.60379C16.5618 8.57583 16.6042 8.55685 16.6492 8.54835C16.6942 8.53985 16.7406 8.54207 16.7846 8.55482Z" fill="#407BFF"/>
<path d="M5.6644 27.5904C5.61337 27.6143 5.56773 27.6485 5.53032 27.691C5.4929 27.7335 5.4645 27.7834 5.4469 27.8375C5.42929 27.8917 5.42285 27.9489 5.42798 28.0056C5.4331 28.0624 5.44968 28.1175 5.47669 28.1674C5.51165 28.2348 5.56397 28.2913 5.62807 28.331C5.69217 28.3706 5.76567 28.3918 5.84073 28.3925C5.90374 28.3942 5.96623 28.3804 6.02275 28.3521C7.7607 27.4489 9.68421 26.9744 11.6369 26.9672C13.7034 26.9978 15.7411 27.4634 17.6209 28.3348C17.6952 28.3742 17.7797 28.3894 17.8629 28.3785C17.9461 28.3676 18.024 28.331 18.0861 28.2738C18.1481 28.2165 18.1913 28.1413 18.2098 28.0583C18.2284 27.9753 18.2213 27.8885 18.1897 27.8097C18.1496 27.7074 18.0722 27.6247 17.9735 27.5789C15.9835 26.6554 13.8251 26.1641 11.6369 26.1364C9.56111 26.1382 7.51494 26.6364 5.6644 27.5904Z" fill="#407BFF"/>
</svg>
